<svg xmlns="http://www.w3.org/2000/svg" width="720" height="1280" viewBox="0 0 720 1280">
  <rect width="720" height="1280" fill="#020617"/>
  <rect x="116" y="52" width="488" height="1176" rx="48" fill="#0f172a" stroke="#10b981" stroke-width="5"/>
  <rect x="148" y="104" width="424" height="1072" rx="28" fill="#111827"/>
  <text x="176" y="156" fill="#f8fafc" font-family="SFMono-Regular, Menlo, monospace" font-size="26" font-weight="700">Run detail</text>
  <text x="176" y="194" fill="#94a3b8" font-family="SFMono-Regular, Menlo, monospace" font-size="15">Mobile Companion evidence review</text>

  <rect x="176" y="232" width="368" height="132" rx="18" fill="#064e3b" stroke="#10b981"/>
  <text x="202" y="270" fill="#d1fae5" font-family="SFMono-Regular, Menlo, monospace" font-size="18" font-weight="700">Recipe evidence</text>
  <text x="202" y="306" fill="#a7f3d0" font-family="SFMono-Regular, Menlo, monospace" font-size="14">2 runs · selected attempted run</text>
  <rect x="202" y="326" width="116" height="28" rx="14" fill="#10b981"/>
  <text x="224" y="346" fill="#022c22" font-family="SFMono-Regular, Menlo, monospace" font-size="12">Attempted</text>

  <rect x="176" y="396" width="368" height="132" rx="18" fill="#1e1b4b" stroke="#6366f1"/>
  <text x="202" y="434" fill="#e0e7ff" font-family="SFMono-Regular, Menlo, monospace" font-size="18" font-weight="700">Recipe runs</text>
  <text x="202" y="470" fill="#c4b5fd" font-family="SFMono-Regular, Menlo, monospace" font-size="14">Tap a run to scope artifacts</text>
  <rect x="202" y="490" width="156" height="28" rx="14" fill="#4f46e5"/>
  <text x="218" y="510" fill="#fff" font-family="SFMono-Regular, Menlo, monospace" font-size="12">Decision evidence</text>

  <rect x="176" y="560" width="368" height="248" rx="18" fill="#0b1120" stroke="#334155"/>
  <text x="202" y="600" fill="#f8fafc" font-family="SFMono-Regular, Menlo, monospace" font-size="18" font-weight="700">Artifacts</text>
  <rect x="202" y="626" width="136" height="76" rx="12" fill="#172554" stroke="#3b82f6"/>
  <text x="222" y="656" fill="#bfdbfe" font-family="SFMono-Regular, Menlo, monospace" font-size="13">Screenshot</text>
  <text x="222" y="682" fill="#93c5fd" font-family="SFMono-Regular, Menlo, monospace" font-size="11">recipe-run scoped</text>
  <rect x="356" y="626" width="136" height="76" rx="12" fill="#1f2937" stroke="#64748b"/>
  <text x="376" y="656" fill="#e5e7eb" font-family="SFMono-Regular, Menlo, monospace" font-size="13">Trace</text>
  <text x="376" y="682" fill="#94a3b8" font-family="SFMono-Regular, Menlo, monospace" font-size="11">trace.json</text>
  <rect x="202" y="732" width="290" height="44" rx="12" fill="#10b981"/>
  <text x="250" y="761" fill="#022c22" font-family="SFMono-Regular, Menlo, monospace" font-size="15" font-weight="700">Open recipe artifacts</text>

  <rect x="176" y="842" width="368" height="230" rx="18" fill="#111827" stroke="#475569"/>
  <text x="202" y="882" fill="#f8fafc" font-family="SFMono-Regular, Menlo, monospace" font-size="18" font-weight="700">Media viewer</text>
  <rect x="202" y="912" width="290" height="116" rx="14" fill="#020617" stroke="#64748b"/>
  <text x="228" y="972" fill="#a7f3d0" font-family="SFMono-Regular, Menlo, monospace" font-size="16">Selected recipe screenshot</text>
</svg>
